<svg width="80" height="80" viewBox="0 0 80 80" fill="none" xmlns="http://www.w3.org/2000/svg">
<path d="M48.5895 40.0004L31.1868 57.4031H26.3473L17.5446 48.6003L24.4199 41.725H29.5844L33.9535 46.0941L29.3008 50.7468L26.5779 48.0239L28.4777 46.124L26.5779 44.2242L22.7206 48.0815L29.0472 54.4081C33.8382 49.6055 38.627 44.8052 43.418 40.0027H48.5964L48.5895 40.0004Z" fill="white"/>
<path d="M48.5895 40.0003L31.1868 22.5977H26.3473L17.5446 31.4004L24.4199 38.2758H29.5844L33.9535 33.9066L29.3008 29.2539L26.5779 31.9768L28.4777 33.8767L26.5779 35.7765L22.7206 31.9192L29.0472 25.5926C33.8382 30.3952 38.627 35.1955 43.418 39.998H48.5964L48.5895 40.0003Z" fill="white"/>
<path d="M32.1622 40.0003L49.5649 22.5977H54.4043L63.2071 31.4004L56.3318 38.2758H51.1673L46.7982 33.9066L51.4509 29.2539L54.1738 31.9768L52.274 33.8767L54.1738 35.7765L58.031 31.9192L51.7045 25.5926C46.9134 30.3952 42.1247 35.1955 37.3337 39.998H32.1553L32.1622 40.0003Z" fill="white"/>
<path d="M32.1622 40.0004L49.5649 57.4031H54.4043L63.2071 48.6003L56.3318 41.725H51.1673L46.7982 46.0941L51.4509 50.7468L54.1738 48.0239L52.274 46.124L54.1738 44.2242L58.031 48.0815L51.7045 54.4081C46.9134 49.6055 42.1247 44.8052 37.3337 40.0027C35.6068 40.0027 33.8822 40.0027 32.1553 40.0027L32.1622 40.0004Z" fill="white"/>
<path d="M68.2839 68.2832V64.8248H11.716V68.2832H68.2839Z" fill="white"/>
<path d="M11.716 68.2831H15.1744L15.1744 11.7152H11.716L11.716 68.2831Z" fill="white"/>
<path d="M11.7159 11.7176V15.176L68.2839 15.176V11.7176L11.7159 11.7176Z" fill="white"/>
<path d="M68.284 11.7175H64.8256V68.2854H68.284V11.7175Z" fill="white"/>
<path d="M39.9996 80L42.4451 77.5546L2.44548 37.555L1.86405e-05 40.0004L39.9996 80Z" fill="white"/>
<path d="M0.000706574 39.9995L2.44617 42.445L42.4457 2.44543L40.0003 -2.89077e-05L0.000706574 39.9995Z" fill="white"/>
<path d="M40.0004 0.00363626L37.5549 2.4491L77.5545 42.4487L80 40.0032L40.0004 0.00363626Z" fill="white"/>
<path d="M79.9971 40.0004L77.5516 37.5549L37.552 77.5545L39.9975 80L79.9971 40.0004Z" fill="white"/>
</svg>
